<svg id="visual" viewBox="0 0 540 960" width="540" height="960" xmlns="http://www.w3.org/2000/svg" xmlns:xlink="http://www.w3.org/1999/xlink" version="1.1"><rect x="0" y="0" width="540" height="960" fill="#ffffff"></rect><defs><linearGradient id="grad1_0" x1="0%" y1="100%" x2="100%" y2="0%"><stop offset="30%" stop-color="#ffffff" stop-opacity="1"></stop><stop offset="70%" stop-color="#ffffff" stop-opacity="1"></stop></linearGradient></defs><defs><linearGradient id="grad2_0" x1="0%" y1="100%" x2="100%" y2="0%"><stop offset="30%" stop-color="#ffffff" stop-opacity="1"></stop><stop offset="70%" stop-color="#ffffff" stop-opacity="1"></stop></linearGradient></defs><g transform="translate(540, 960)"><path d="M-432 0C-378.3 -24.7 -324.6 -49.3 -313.9 -84.1C-303.3 -118.9 -335.8 -163.9 -330 -190.5C-324.1 -217.1 -280 -225.5 -258.8 -258.8C-237.6 -292.1 -239.2 -350.3 -216 -374.1C-192.8 -397.9 -144.9 -387.3 -104.8 -391.2C-64.7 -395.1 -32.3 -413.6 0 -432L0 0Z" fill="#ff3b3b"></path></g><g transform="translate(0, 0)"><path d="M432 0C432.9 39.9 433.9 79.8 417.3 111.8C400.7 143.8 366.5 167.8 347.3 200.5C328 233.2 323.7 274.6 299.1 299.1C274.5 323.6 229.6 331.2 191.5 331.7C153.4 332.1 122.1 325.4 91.4 341C60.6 356.5 30.3 394.2 0 432L0 0Z" fill="#ff3b3b"></path></g></svg>